<!DOCTYPE svg PUBLIC "-//W3C//DTD SVG 1.1//EN" "http://www.w3.org/Graphics/SVG/1.1/DTD/svg11.dtd">
<!-- Uploaded to: SVG Repo, www.svgrepo.com, Transformed by: SVG Repo Mixer Tools -->
<svg fill="#1e81b0" height="256px" width="256px" version="1.1" id="Capa_1" xmlns="http://www.w3.org/2000/svg" xmlns:xlink="http://www.w3.org/1999/xlink" viewBox="0 0 221.374 221.374" xml:space="preserve">
<g id="SVGRepo_bgCarrier" stroke-width="0"/>
<g id="SVGRepo_tracerCarrier" stroke-linecap="round" stroke-linejoin="round"/>
<g id="SVGRepo_iconCarrier"> <path d="M185.349,90.616c-8.119-2.318-13.624-5.538-16.087-9.379l16.94-36.199v-1.112c0-19.117-38.035-29.119-75.606-29.119 S34.99,24.808,34.99,43.926v1.112L52.006,81.4c-2.512,3.769-7.972,6.931-15.98,9.216C0.054,100.88-1.723,127.714,0.746,149.944 c1.177,10.594,10.505,23.222,48.259,23.222c0.969,0,1.925-0.009,2.856-0.024c2.687-0.045,5.209-0.919,7.282-2.433 c10.844,20.112,29.676,35.86,51.635,35.86c22.376,0,41.505-16.352,52.245-37.011c2.534,2.288,5.863,3.61,9.414,3.61h0.007 c37.694-0.019,47.009-12.639,48.186-23.223C223.097,127.714,221.32,100.88,185.349,90.616z M176.096,43.04l-14.079,30.085 c-8.824-6.158-23.808-10.383-41.159-11.653V50.975l10.52-0.01c1.985-0.002,3.594-1.613,3.592-3.598l-0.008-9.086 c-0.002-1.986-1.613-3.594-3.599-3.592l-10.504,0.01v-9.635C153.563,26.71,174.444,36.011,176.096,43.04z M103.348,24.934v9.781 l-10.52,0.01c-1.986,0.002-3.594,1.613-3.592,3.598l0.008,9.086c0.002,1.986,1.613,3.594,3.599,3.592l10.504-0.01v10.222 c-18.507,0.785-34.788,4.887-44.532,11.145L45.095,43.04C46.799,35.798,68.916,26.143,103.348,24.934z M110.778,196.568 c-20.783,0-38.606-18.257-46.755-39.178c-0.219-0.886-0.539-1.75-0.952-2.579c-1.733-4.981-2.911-10.072-3.447-15.074 c0.851-0.569,1.813-1.035,2.686-1.385c16.452-6.609,38.54-21.775,48.378-41.302c9.838,19.527,31.926,34.693,48.378,41.302 c0.927,0.372,1.963,0.872,2.854,1.494C158.974,166.888,137.28,196.568,110.778,196.568z"/> </g>
</svg>