<!DOCTYPE svg PUBLIC "-//W3C//DTD SVG 1.1//EN" "http://www.w3.org/Graphics/SVG/1.1/DTD/svg11.dtd">
<!-- Uploaded to: SVG Repo, www.svgrepo.com, Transformed by: SVG Repo Mixer Tools -->
<svg width="800px" height="800px" viewBox="0 0 24 24" id="Layer_1" data-name="Layer 1" xmlns="http://www.w3.org/2000/svg" fill="#000000" stroke="#000000">
<g id="SVGRepo_bgCarrier" stroke-width="0"/>
<g id="SVGRepo_tracerCarrier" stroke-linecap="round" stroke-linejoin="round"/>
<g id="SVGRepo_iconCarrier">
<defs>
<style>.cls-1{fill:none;stroke:#f47c64;stroke-miterlimit:10;stroke-width:1.91px;}</style>
</defs>
<polyline class="cls-1" points="12.96 22.5 1.5 22.5 1.5 1.5 5.32 1.5 12.96 1.5 18.68 1.5 18.68 8.18"/>
<path class="cls-1" d="M20.59,15.39V11.05H16.77v4.34a3.82,3.82,0,1,0,3.82,0Z"/>
<line class="cls-1" x1="22.5" y1="11.05" x2="14.86" y2="11.05"/>
<line class="cls-1" x1="14.86" y1="17.73" x2="19.64" y2="17.73"/>
<line class="cls-1" x1="4.36" y1="6.27" x2="6.27" y2="6.27"/>
<line class="cls-1" x1="4.36" y1="10.09" x2="6.27" y2="10.09"/>
<line class="cls-1" x1="4.36" y1="13.91" x2="6.27" y2="13.91"/>
<line class="cls-1" x1="8.18" y1="6.27" x2="15.82" y2="6.27"/>
<line class="cls-1" x1="8.18" y1="10.09" x2="12.95" y2="10.09"/>
<line class="cls-1" x1="8.18" y1="13.91" x2="12.95" y2="13.91"/>
<line class="cls-1" x1="4.36" y1="17.73" x2="6.27" y2="17.73"/>
<line class="cls-1" x1="8.18" y1="17.73" x2="12.95" y2="17.73"/>
</g>
</svg>