<?xml version="1.0" encoding="UTF-8"?>
<svg xmlns="http://www.w3.org/2000/svg" xmlns:xlink="http://www.w3.org/1999/xlink" width="47pt" height="30pt" viewBox="0 0 47 30" version="1.1">
<g id="surface1">
<path style=" stroke:none;fill-rule:nonzero;fill:rgb(0%,0%,0%);fill-opacity:1;" d="M 36.785156 0.09375 C 36.546875 0.222656 36.363281 0.613281 36.3125 1.074219 L 36.269531 1.453125 L 35.09375 2.066406 C 30.476562 4.476562 27.710938 6.160156 27.328125 6.792969 C 26.992188 7.339844 27.289062 7.773438 28.367188 8.300781 L 29.066406 8.636719 L 29.027344 9.488281 C 29.003906 9.953125 28.984375 10.34375 28.980469 10.351562 C 28.96875 10.363281 25.558594 8.585938 25.375 8.46875 C 25.257812 8.394531 25.230469 8.324219 25.230469 8.050781 C 25.226562 6.960938 24.722656 6.011719 24.054688 5.828125 C 23.128906 5.582031 22.4375 6.40625 22.332031 7.886719 L 22.292969 8.414062 L 20.625 9.28125 C 19.710938 9.761719 18.738281 10.269531 18.476562 10.410156 L 17.996094 10.671875 L 17.996094 8.597656 L 18.429688 8.425781 C 18.980469 8.203125 19.542969 7.824219 19.683594 7.585938 C 19.738281 7.480469 19.789062 7.296875 19.789062 7.164062 C 19.789062 6.953125 19.746094 6.886719 19.386719 6.542969 C 18.558594 5.742188 16.046875 4.246094 11.949219 2.109375 L 10.699219 1.460938 L 10.699219 1.210938 C 10.699219 0.820312 10.582031 0.492188 10.359375 0.265625 C 10.191406 0.0976562 10.105469 0.0625 9.894531 0.0625 C 9.46875 0.0625 9.234375 0.402344 9.121094 1.199219 L 9.078125 1.488281 L 7.921875 2.09375 C 3.371094 4.457031 0.644531 6.121094 0.15625 6.828125 C -0.191406 7.332031 0.0976562 7.78125 1.074219 8.257812 C 1.417969 8.429688 1.730469 8.566406 1.773438 8.566406 C 1.824219 8.566406 1.847656 9.007812 1.867188 10.207031 C 1.886719 11.746094 1.890625 11.859375 2.011719 12.019531 C 2.175781 12.242188 2.578125 12.375 3.773438 12.601562 C 7.230469 13.261719 10.148438 13.398438 13.105469 13.03125 C 13.390625 13 13.628906 12.980469 13.648438 12.996094 C 13.660156 13.011719 13.234375 13.269531 12.695312 13.570312 C 9.605469 15.296875 7.246094 16.8125 6.296875 17.6875 C 5.570312 18.351562 5.496094 19.03125 6.058594 19.738281 C 6.417969 20.203125 7.464844 20.824219 8.558594 21.234375 L 9.101562 21.445312 L 9.058594 23.554688 C 9.035156 24.945312 9.042969 25.941406 9.085938 26.449219 C 9.214844 27.875 9.28125 27.964844 10.699219 28.335938 C 12.800781 28.894531 16.753906 29.484375 20.222656 29.765625 C 23.523438 30.03125 26.5 29.925781 30.703125 29.398438 C 34.007812 28.976562 37.347656 28.328125 38.046875 27.964844 C 38.359375 27.796875 38.421875 27.578125 38.476562 26.324219 C 38.507812 25.691406 38.515625 24.335938 38.492188 23.3125 L 38.453125 21.445312 L 39.058594 21.207031 C 40.167969 20.773438 40.835938 20.382812 41.355469 19.878906 C 41.730469 19.511719 41.828125 19.285156 41.835938 18.8125 C 41.835938 18.457031 41.8125 18.371094 41.636719 18.121094 C 41.125 17.382812 39.363281 16.171875 35.683594 14.042969 C 34.136719 13.148438 33.953125 13.03125 34.199219 13.0625 C 36.902344 13.386719 40.550781 13.164062 43.863281 12.453125 C 44.78125 12.261719 45.039062 12.136719 45.089844 11.890625 C 45.113281 11.785156 45.132812 11 45.136719 10.144531 L 45.144531 8.59375 L 45.632812 8.394531 C 46.246094 8.140625 46.765625 7.765625 46.902344 7.488281 C 47.023438 7.226562 47.023438 7.121094 46.90625 6.898438 C 46.566406 6.234375 43.847656 4.550781 39.164062 2.109375 L 37.914062 1.464844 L 37.871094 1.117188 C 37.828125 0.71875 37.667969 0.324219 37.496094 0.167969 C 37.320312 0.0117188 36.988281 -0.0195312 36.785156 0.09375 Z M 31.539062 9.21875 C 32.75 9.449219 35.125 9.683594 36.191406 9.683594 L 36.425781 9.683594 L 36.175781 9.910156 C 35.855469 10.199219 35.472656 10.976562 35.304688 11.679688 C 35.183594 12.1875 35.167969 12.207031 35.015625 12.1875 C 34.921875 12.179688 34.445312 12.125 33.953125 12.074219 C 33.457031 12.019531 32.714844 11.921875 32.300781 11.859375 C 31.59375 11.742188 31.484375 11.710938 30.785156 11.335938 L 30.023438 10.941406 L 30.003906 9.914062 L 29.992188 8.890625 L 30.375 8.984375 C 30.59375 9.035156 31.113281 9.140625 31.539062 9.21875 Z M 44.21875 10.183594 L 44.21875 11.410156 L 43.894531 11.484375 C 42.769531 11.726562 39.757812 12.167969 39.183594 12.167969 L 38.972656 12.167969 L 38.867188 11.683594 C 38.726562 11.03125 38.410156 10.375 38.070312 10.007812 L 37.792969 9.710938 L 39.039062 9.628906 C 39.726562 9.59375 40.722656 9.5 41.25 9.429688 C 42.140625 9.320312 44.027344 8.972656 44.082031 8.910156 C 44.1875 8.804688 44.21875 9.101562 44.21875 10.183594 Z M 3.214844 9.003906 C 4.117188 9.269531 6.628906 9.597656 8.210938 9.667969 C 8.761719 9.683594 9.214844 9.710938 9.214844 9.714844 C 9.214844 9.722656 9.089844 9.851562 8.941406 10.007812 C 8.601562 10.367188 8.316406 10.953125 8.152344 11.652344 C 8.078125 11.957031 8.015625 12.207031 8.015625 12.210938 C 7.996094 12.238281 6.257812 12.042969 5.378906 11.914062 C 4.253906 11.753906 2.957031 11.492188 2.875 11.417969 C 2.839844 11.378906 2.808594 10.847656 2.796875 10.152344 C 2.769531 8.796875 2.746094 8.867188 3.214844 9.003906 Z M 17.007812 10.078125 L 17.007812 11.207031 L 16.609375 11.410156 C 16.296875 11.574219 16.003906 11.648438 15.144531 11.796875 C 14.167969 11.957031 11.875 12.25 11.835938 12.210938 C 11.832031 12.207031 11.761719 11.964844 11.695312 11.671875 C 11.519531 10.976562 11.207031 10.320312 10.890625 10.003906 C 10.75 9.859375 10.636719 9.734375 10.636719 9.730469 C 10.636719 9.714844 11.074219 9.683594 11.613281 9.660156 C 12.972656 9.605469 14.679688 9.398438 15.820312 9.15625 C 16.351562 9.046875 16.839844 8.953125 16.902344 8.945312 C 17 8.941406 17.007812 9.035156 17.007812 10.078125 Z M 11.410156 22.128906 C 13.953125 22.765625 17.804688 23.277344 20.871094 23.375 C 21.484375 23.394531 22.109375 23.425781 22.257812 23.445312 L 22.523438 23.480469 L 22.1875 23.777344 C 21.386719 24.5 20.648438 26.0625 20.394531 27.578125 L 20.328125 28 L 20.125 28 C 19.695312 28 17.359375 27.738281 15.925781 27.527344 C 14.304688 27.292969 12.441406 26.964844 11.472656 26.734375 L 10.851562 26.589844 L 10.824219 25.882812 C 10.804688 25.492188 10.796875 24.457031 10.808594 23.574219 C 10.824219 22.089844 10.835938 21.972656 10.933594 22.003906 C 10.988281 22.023438 11.207031 22.078125 11.410156 22.128906 Z M 36.722656 24.289062 L 36.703125 26.597656 L 36.023438 26.742188 C 33.445312 27.285156 27.648438 28.113281 27.304688 27.980469 C 27.253906 27.957031 27.210938 27.890625 27.210938 27.820312 C 27.210938 27.601562 26.859375 26.300781 26.660156 25.796875 C 26.371094 25.039062 25.941406 24.355469 25.472656 23.890625 L 25.050781 23.476562 L 25.25 23.445312 C 25.363281 23.425781 25.949219 23.398438 26.5625 23.382812 C 29.664062 23.289062 33.566406 22.773438 36.175781 22.109375 C 36.429688 22.046875 36.660156 21.992188 36.691406 21.984375 C 36.714844 21.976562 36.726562 23.015625 36.722656 24.289062 Z M 36.722656 24.289062 "/>
</g>
</svg>
