<!DOCTYPE svg PUBLIC "-//W3C//DTD SVG 1.1//EN" "http://www.w3.org/Graphics/SVG/1.1/DTD/svg11.dtd">
<!-- Uploaded to: SVG Repo, www.svgrepo.com, Transformed by: SVG Repo Mixer Tools -->
<svg xmlns:dc="http://purl.org/dc/elements/1.1/" xmlns:cc="http://creativecommons.org/ns#" xmlns:rdf="http://www.w3.org/1999/02/22-rdf-syntax-ns#" xmlns:svg="http://www.w3.org/2000/svg" xmlns="http://www.w3.org/2000/svg" version="1.1" width="256px" height="256px" viewBox="0 0 14 14" id="svg2" fill="#000000">
<g id="SVGRepo_bgCarrier" stroke-width="0"/>
<g id="SVGRepo_tracerCarrier" stroke-linecap="round" stroke-linejoin="round"/>
<g id="SVGRepo_iconCarrier"> <metadata id="metadata8"> <rdf:rdf> <cc:work rdf:about=""> <dc:format>image/svg+xml</dc:format> <dc:type rdf:resource="http://purl.org/dc/dcmitype/StillImage"/> <dc:title/> </cc:work> </rdf:rdf> </metadata> <defs id="defs6"/> <rect width="14" height="14" x="0" y="0" id="canvas" style="fill:none;stroke:none;visibility:hidden"/> <path d="M 7,0 C 6.75,0.0032 6.5,0.1644239 6.5,0.5 l 0,4.03125 C 3.906144,4.6951647 3,6.060613 3,7 l 8,0 C 11,6.060613 10.093856,4.6951647 7.5,4.53125 L 7.5,0.5 C 7.5,0.1516409 7.25,-0.0031957 7,0 z M 8,0 8,3 12,3 10,1.5 12,0 8,0 z m -7,8 0,1 1,0 0,4 -1,0 -1,1 14,0 -1,-1 -1,0 0,-4 1,0 0,-1 -12,0 z m 3,1 1,0 0,4 -1,0 0,-4 z m 2,0 2,0 0,4 -2,0 0,-4 z m 3,0 1,0 0,4 -1,0 0,-4 z" id="government" style="fill:#1e81b0;fill-opacity:1;stroke:none"/> </g>
</svg>