<!DOCTYPE svg PUBLIC "-//W3C//DTD SVG 1.1//EN" "http://www.w3.org/Graphics/SVG/1.1/DTD/svg11.dtd">
<!-- Uploaded to: SVG Repo, www.svgrepo.com, Transformed by: SVG Repo Mixer Tools -->
<svg fill="#52668e" height="800px" width="800px" version="1.1" id="Layer_1" xmlns="http://www.w3.org/2000/svg" xmlns:xlink="http://www.w3.org/1999/xlink" viewBox="0 0 128 128" xml:space="preserve" stroke="#52668e">
<g id="SVGRepo_bgCarrier" stroke-width="0"/>
<g id="SVGRepo_tracerCarrier" stroke-linecap="round" stroke-linejoin="round"/>
<g id="SVGRepo_iconCarrier"> <path d="M40.9,63.3l-11.3,9L15.2,83.3c-4.1,3.2-7.5-0.7-7.5-0.7c-3.2-4.2,0.5-6.9,0.5-6.9l18-14.1c0,0,2-2.1,7.1-0.6L40.9,63.3"/> <path d="M62,45.4c-5.6,0-10.2-4.6-10.2-10.2c0-5.6,4.6-10.2,10.2-10.2c5.6,0,10.2,4.6,10.2,10.2C72.2,40.8,67.6,45.4,62,45.4"/> <path d="M24.6,90.5c-0.7-1.9-1-4-0.5-6.2c0.6-2.4,1.9-4.4,3.6-5.9l75.6-60.2c1.8-1.3,4.1-2.2,6.6-2.2c6,0,10.9,4.8,10.9,10.9 c0,3.5-1.6,6.6-4.1,8.6c-0.9,0.8-2.2,0.7-3-0.2c-0.8-0.9-0.7-2.3,0.2-3c1.6-1.2,2.7-3.2,2.7-5.4c0-3.7-3-6.7-6.7-6.7 c-1.5,0-2.9,0.5-4,1.4l-22,17.5L72.3,72.5l7,16.6c0.8-0.2,1.7-0.3,2.6-0.3c7,0,12.6,5.6,12.6,12.6c0,7-5.6,12.6-12.6,12.6 c-6.9,0-12.6-5.6-12.6-12.6c0-4.5,2.3-8.5,5.9-10.7l-5-12l-0.4,1.3c-1.5,4.7-6.6,7.3-11.3,5.7l-23.3-7.7l-4.6,3.7 c-1.1,0.9-1.9,2.1-2.3,3.6c-0.3,1.4-0.1,2.7,0.4,3.8c0.8-0.2,1.7-0.3,2.6-0.3c6.9,0,12.6,5.6,12.6,12.6c0,7-5.6,12.6-12.6,12.6 s-12.6-5.6-12.6-12.6C18.7,96.7,21,92.8,24.6,90.5 M87.3,101.3c0-3-2.4-5.5-5.5-5.5c-3,0-5.5,2.4-5.5,5.5c0,3,2.4,5.5,5.5,5.5 C84.9,106.8,87.3,104.3,87.3,101.3 M36.7,101.3c0-3-2.4-5.5-5.5-5.5c-3,0-5.5,2.4-5.5,5.5c0,3,2.4,5.5,5.5,5.5 C34.3,106.8,36.7,104.3,36.7,101.3"/> </g>
</svg>