<?xml version="1.0" encoding="iso-8859-1"?>
<!-- Uploaded to: SVG Repo, www.svgrepo.com, Generator: SVG Repo Mixer Tools -->
<svg height="800px" width="800px" version="1.1" id="Layer_1" xmlns="http://www.w3.org/2000/svg" xmlns:xlink="http://www.w3.org/1999/xlink" 
	 viewBox="0 0 512 512" xml:space="preserve">
<polygon style="fill:#8B5428;" points="187.528,32 144.496,161.104 205.24,480 306.76,480 367.504,161.104 324.472,32 "/>
<g>
	<path style="fill:#7C4B22;" d="M320,512H192c-7.68,0-14.28-5.464-15.72-13.008l-64-336c-0.504-2.68-0.328-5.456,0.536-8.048l48-144
		C163,4.408,169.112,0,176,0h160c6.888,0,13,4.408,15.176,10.944l48,144c0.864,2.592,1.048,5.368,0.536,8.048l-64,336
		C334.28,506.536,327.68,512,320,512z M205.24,480h101.512l60.744-318.896L324.472,32H187.528l-43.032,129.104L205.24,480z"/>
	<polygon style="fill:#7C4B22;" points="256,32 256,480 306.76,480 367.504,161.104 324.472,32 	"/>
</g>
<path style="fill:#6E421B;" d="M351.176,10.944C349,4.408,342.888,0,336,0h-80v32h68.472l43.032,129.104L306.76,480H256v32h64
	c7.68,0,14.28-5.464,15.72-13.008l64-336c0.504-2.68,0.328-5.456-0.536-8.048L351.176,10.944z"/>
<path style="fill:#7C4B22;" d="M351.176,10.944C349,4.408,342.888,0,336,0h-80v32h68.472l42.664,128h32.768
	c0-1.712-0.168-3.424-0.72-5.056L351.176,10.944z"/>
<g>
	<path style="fill:#8B5428;" d="M160.72,10.944C162.896,4.408,169.008,0,175.896,0h80v32h-68.464l-42.664,128H112
		c0-1.712,0.168-3.424,0.72-5.056L160.72,10.944z"/>
	<polygon style="fill:#8B5428;" points="367.136,160 324.472,32 256,32 256,160 	"/>
</g>
<polygon style="fill:#92582B;" points="144.864,160 187.528,32 256,32 256,160 "/>
<path style="fill:#FBAC43;" d="M280,152h-16v-16c0-4.416-3.576-8-8-8c-4.424,0-8,3.584-8,8v16h-16c-4.424,0-8,3.584-8,8s3.576,8,8,8
	h16v32c0,4.416,3.576,8,8,8c4.424,0,8-3.584,8-8v-32h16c4.424,0,8-3.584,8-8S284.424,152,280,152z"/>
</svg>