<?xml version="1.0" encoding="iso-8859-1"?>
<!-- Uploaded to: SVG Repo, www.svgrepo.com, Generator: SVG Repo Mixer Tools -->
<svg version="1.1" id="Layer_1" xmlns="http://www.w3.org/2000/svg" xmlns:xlink="http://www.w3.org/1999/xlink" 
	 viewBox="0 0 512 512" xml:space="preserve">
<rect y="42.667" style="fill:#FFAD41;" width="512" height="118.154"/>
<rect x="256" y="42.667" style="fill:#FF9811;" width="256" height="118.154"/>
<rect y="154.256" style="fill:#BEDDF5;" width="512" height="341.333"/>
<rect x="256" y="154.256" style="fill:#93C7EF;" width="256" height="341.333"/>
<g>
	<rect x="91.897" y="16.41" style="fill:#FF5023;" width="39.385" height="91.897"/>
	<rect x="236.308" y="16.41" style="fill:#FF5023;" width="39.385" height="91.897"/>
	<rect x="380.718" y="16.41" style="fill:#FF5023;" width="39.385" height="91.897"/>
</g>
<g>
	<circle style="fill:#FFFFFF;" cx="131.282" cy="259.282" r="19.692"/>
	<circle style="fill:#FFFFFF;" cx="214.423" cy="259.282" r="19.692"/>
	<circle style="fill:#FFFFFF;" cx="297.577" cy="259.282" r="19.692"/>
	<circle style="fill:#FFFFFF;" cx="380.718" cy="259.282" r="19.692"/>
	<circle style="fill:#FFFFFF;" cx="131.282" cy="324.923" r="19.692"/>
	<circle style="fill:#FFFFFF;" cx="214.423" cy="324.923" r="19.692"/>
	<circle style="fill:#FFFFFF;" cx="297.577" cy="324.923" r="19.692"/>
	<circle style="fill:#FFFFFF;" cx="380.718" cy="324.923" r="19.692"/>
	<circle style="fill:#FFFFFF;" cx="131.282" cy="390.564" r="19.692"/>
	<circle style="fill:#FFFFFF;" cx="214.423" cy="390.564" r="19.692"/>
	<circle style="fill:#FFFFFF;" cx="297.577" cy="390.564" r="19.692"/>
	<circle style="fill:#FFFFFF;" cx="380.718" cy="390.564" r="19.692"/>
</g>
</svg>