<!DOCTYPE svg PUBLIC "-//W3C//DTD SVG 1.1//EN" "http://www.w3.org/Graphics/SVG/1.1/DTD/svg11.dtd">

<!-- Uploaded to: SVG Repo, www.svgrepo.com, Transformed by: SVG Repo Mixer Tools -->
<svg fill="#293a60" width="28px" height="28px" viewBox="0 0 24 24" xmlns="http://www.w3.org/2000/svg" stroke="#293a60">

<g id="SVGRepo_bgCarrier" stroke-width="0"/>

<g id="SVGRepo_tracerCarrier" stroke-linecap="round" stroke-linejoin="round"/>

<g id="SVGRepo_iconCarrier">

<path d="M19.73,16.663A3.467,3.467,0,0,0,20.5,14.5a3.5,3.5,0,0,0-7,0,3.467,3.467,0,0,0,.77,2.163A6.04,6.04,0,0,0,12,18.69a6.04,6.04,0,0,0-2.27-2.027A3.467,3.467,0,0,0,10.5,14.5a3.5,3.5,0,0,0-7,0,3.467,3.467,0,0,0,.77,2.163A6,6,0,0,0,1,22a1,1,0,0,0,1,1H22a1,1,0,0,0,1-1A6,6,0,0,0,19.73,16.663ZM7,13a1.5,1.5,0,1,1-1.5,1.5A1.5,1.5,0,0,1,7,13ZM3.127,21a4,4,0,0,1,7.746,0ZM17,13a1.5,1.5,0,1,1-1.5,1.5A1.5,1.5,0,0,1,17,13Zm-3.873,8a4,4,0,0,1,7.746,0ZM11,10V7H8A1,1,0,0,1,8,5h3V2a1,1,0,0,1,2,0V5h3a1,1,0,0,1,0,2H13v3a1,1,0,0,1-2,0Z"/>

</g>

</svg>