<!DOCTYPE svg PUBLIC "-//W3C//DTD SVG 1.1//EN" "http://www.w3.org/Graphics/SVG/1.1/DTD/svg11.dtd">
<!-- Uploaded to: SVG Repo, www.svgrepo.com, Transformed by: SVG Repo Mixer Tools -->
<svg fill="#314463" version="1.1" id="Layer_1" xmlns="http://www.w3.org/2000/svg" xmlns:xlink="http://www.w3.org/1999/xlink" width="800px" height="800px" viewBox="0 0 245 256" enable-background="new 0 0 245 256" xml:space="preserve" stroke="#314463">
<g id="SVGRepo_bgCarrier" stroke-width="0"/>
<g id="SVGRepo_tracerCarrier" stroke-linecap="round" stroke-linejoin="round"/>
<g id="SVGRepo_iconCarrier"> <path d="M190,63.24V7h-31v27.73L122.97,1.82L1.94,110.15l18.4,20.74L39,114.04V254h167V115.08l18.36,16.85l18.89-20.22L190,63.24z M159.03,123.58c3.68,0,6.93,2.06,8.55,4.98c0.22,0.33,0.44,0.65,0.76,0.98c1.95,1.95,5.09,1.95,6.93,0 c0.32-0.33,0.54-0.65,0.76-0.98c-1.19,8.34-8.34,14.73-17,14.73c-5.42,0-9.86-4.44-9.86-9.85 C149.17,128.02,153.61,123.58,159.03,123.58z M121.48,195.91c3.17,0,5.74,2.57,5.74,5.74c0,3.17-2.57,5.74-5.74,5.74 c-3.17,0-5.73-2.57-5.73-5.74C115.75,198.48,118.31,195.91,121.48,195.91z M84.64,123.04c5.44,0,9.85,4.41,9.85,9.86 c0,5.44-4.41,9.85-9.85,9.85s-9.85-4.41-9.85-9.85C74.79,127.45,79.2,123.04,84.64,123.04z M109.22,187.9 c0,2.38-1.95,4.33-4.33,4.33c-2.49,0-4.33-1.95-4.33-4.33v-27.72c0-0.65-0.54-1.19-1.19-1.19s-1.2,0.54-1.2,1.19v75.04 c0,3.68-2.7,6.71-6.17,6.71c-3.46,0-6.17-3.03-6.17-6.71v-42.77c0-0.65-0.54-1.19-1.19-1.19c-0.65,0-1.19,0.54-1.19,1.19v42.77 c0,3.68-2.71,6.71-6.17,6.71c-3.47,0-6.18-3.03-6.18-6.71v-75.04c0-0.65-0.54-1.19-1.19-1.19c-0.65,0-1.19,0.54-1.19,1.19v27.83 c0,2.38-1.95,4.33-4.33,4.33c-2.49,0-4.33-1.95-4.33-4.33v-30.32c-0.22-6.82,5.41-12.34,12.13-12.34h24.69 c6.82,0,12.34,5.52,12.34,12.34V187.9z M133.07,222.55c0,1.19-0.97,2.06-2.17,2.06c-1.19,0-2.16-0.98-2.16-2.06v-6.6 c0-0.44-0.33-0.65-0.76-0.65s-0.65,0.32-0.65,0.65v23.49c0,1.41-1.08,2.49-2.49,2.49c-1.41,0-2.49-1.08-2.49-2.49v-11.91 c0-0.43-0.32-0.65-0.65-0.65c-0.43,0-0.65,0.33-0.65,0.65v11.91c0,1.41-1.08,2.49-2.49,2.49s-2.49-1.08-2.49-2.49v-23.49 c0-0.44-0.32-0.65-0.65-0.65c-0.43,0-0.76,0.32-0.76,0.65v6.6c0,1.19-0.97,2.06-2.16,2.06s-2.17-0.98-2.17-2.06v-7.9 c-0.32-3.03,2.06-5.63,5.09-5.74h12.13c3.03,0.11,5.52,2.71,5.52,5.74V222.55z M181.12,192.56c-2.38,0.32-4.55-1.41-4.77-3.79 l-3.57-29.13c-0.11-0.54-0.65-0.97-1.19-0.97c-0.65,0-1.19,0.54-1.19,1.19c0,0.11,0,0.21,0,0.21s2.49,20.69,2.6,21.12 c0.1,0.54,0.1,1.08,0.1,1.62v52.52c0,3.68-2.7,6.71-6.17,6.71c-3.35,0-6.17-3.03-6.17-6.71v-42.77c0-0.65-0.54-1.19-1.19-1.19 c-0.65,0-1.19,0.54-1.19,1.19v42.66c0,3.68-2.71,6.71-6.17,6.71c-3.36,0-6.18-3.03-6.18-6.71V182.7c0-0.54,0-1.08,0.11-1.62 c0-0.43,2.6-21.11,2.6-21.11s0-0.11,0-0.22c0-0.65-0.54-1.19-1.19-1.19c-0.65,0-1.08,0.43-1.19,0.97l-3.47,29.13 c-0.43,2.49-2.59,4.22-4.98,3.9c-2.38-0.33-4-2.38-3.79-4.77l3.69-31.4c0.86-5.95,5.95-10.61,12.23-10.61h18.84 c6.17,0,11.37,4.66,12.24,10.61l3.79,31.4C185.23,190.18,183.5,192.34,181.12,192.56z"/> </g>
</svg>