<!DOCTYPE svg PUBLIC "-//W3C//DTD SVG 1.1//EN" "http://www.w3.org/Graphics/SVG/1.1/DTD/svg11.dtd">
<!-- Uploaded to: SVG Repo, www.svgrepo.com, Transformed by: SVG Repo Mixer Tools -->
<svg width="800px" height="800px" viewBox="0 0 20.2 20.2" xmlns="http://www.w3.org/2000/svg" fill="#000000">
<g id="SVGRepo_bgCarrier" stroke-width="0"/>
<g id="SVGRepo_tracerCarrier" stroke-linecap="round" stroke-linejoin="round"/>
<g id="SVGRepo_iconCarrier"> <g id="medical-receipt-2" transform="translate(-2 -2)"> <rect id="secondary" fill="#2ca9bc" width="10.66" height="5" rx="2.5" transform="translate(10.968 18.501) rotate(-45)"/> <path id="primary" d="M10,12V8m2,2H8m8.73,2.73a2.52,2.52,0,0,1,3.54,0h0a2.52,2.52,0,0,1,0,3.54l-4,4a2.52,2.52,0,0,1-3.54,0h0a2.52,2.52,0,0,1,0-3.54Zm1.39,5.39-3.24-3.24" fill="none" stroke="#273662" stroke-linecap="round" stroke-linejoin="round" stroke-width="2"/> <path id="primary-2" data-name="primary" d="M8,21H4a1,1,0,0,1-1-1V4A1,1,0,0,1,4,3H16a1,1,0,0,1,1,1V8" fill="none" stroke="#273662" stroke-linecap="round" stroke-linejoin="round" stroke-width="2"/> </g> </g>
</svg>