<!DOCTYPE svg PUBLIC "-//W3C//DTD SVG 1.1//EN" "http://www.w3.org/Graphics/SVG/1.1/DTD/svg11.dtd">

<!-- Uploaded to: SVG Repo, www.svgrepo.com, Transformed by: SVG Repo Mixer Tools -->
<svg fill="#20345a" width="28px" height="28px" viewBox="0 0 24 24" xmlns="http://www.w3.org/2000/svg">

<g id="SVGRepo_bgCarrier" stroke-width="0"/>

<g id="SVGRepo_tracerCarrier" stroke-linecap="round" stroke-linejoin="round"/>

<g id="SVGRepo_iconCarrier">

<path d="M20,5.5H4a3,3,0,0,0-3,3V19a3,3,0,0,0,3,3H20a3,3,0,0,0,3-3V8.5A3,3,0,0,0,20,5.5ZM21,19a1,1,0,0,1-1,1H4a1,1,0,0,1-1-1V8.5a1,1,0,0,1,1-1H20a1,1,0,0,1,1,1ZM7,3A1,1,0,0,1,8,2h8a1,1,0,0,1,0,2H8A1,1,0,0,1,7,3Zm6,9.75h2v2H13v2H11v-2H9v-2h2v-2h2Z"/>

</g>

</svg>